<svg width="17" height="16" viewBox="0 0 17 16" fill="none" xmlns="http://www.w3.org/2000/svg">
<path d="M4.21076 15.651V5.21353H0.894625V15.651H4.21076ZM2.55312 3.78761C3.70952 3.78761 4.42932 2.98613 4.42932 1.98455C4.40777 0.960385 3.70956 0.181152 2.57507 0.181152C1.44075 0.181152 0.698975 0.9604 0.698975 1.98455C0.698975 2.98618 1.4186 3.78761 2.53147 3.78761H2.55302H2.55312ZM6.04623 15.651H9.36236V9.82222C9.36236 9.51027 9.38391 9.19864 9.47148 8.97565C9.71121 8.35238 10.2568 7.70685 11.1729 7.70685C12.3729 7.70685 12.8529 8.66401 12.8529 10.0671V15.651H16.1689V9.66619C16.1689 6.4602 14.5329 4.96849 12.351 4.96849C10.5621 4.96849 9.77666 6.01459 9.3403 6.72709H9.36244V5.21331H6.0463C6.08982 6.19271 6.0463 15.6508 6.0463 15.6508L6.04623 15.651Z" fill="#1A4470"/>
</svg>
