<svg width="16" height="13" viewBox="0 0 16 13" fill="none" xmlns="http://www.w3.org/2000/svg">
<path d="M15.3627 2.57921C15.2752 2.2279 15.1046 1.90983 14.8691 1.65884C14.6269 1.40012 14.3301 1.21506 14.0067 1.12111C12.7964 0.762383 7.94723 0.762383 7.94723 0.762383C5.92567 0.73652 3.90461 0.850271 1.89545 1.10299C1.57204 1.20388 1.27581 1.39308 1.03312 1.65376C0.794659 1.91176 0.621935 2.2299 0.531707 2.57848C0.314959 3.89146 0.209649 5.22462 0.217195 6.55999C0.209461 7.89416 0.314513 9.22689 0.531707 10.5415C0.620002 10.8886 0.792081 11.2053 1.03119 11.4611C1.27029 11.717 1.56805 11.9018 1.89545 11.9996C3.12192 12.3576 7.94723 12.3576 7.94723 12.3576C9.97136 12.3835 11.995 12.2697 14.0067 12.017C14.3301 11.923 14.6269 11.738 14.8691 11.4793C15.1075 11.2234 15.277 10.9053 15.3621 10.5589C15.5845 9.24642 15.6927 7.91271 15.685 6.57666C15.7017 5.23495 15.5937 3.89495 15.3627 2.57848V2.57921ZM6.4056 9.04137V4.07934L10.4401 6.56071L6.4056 9.04137Z" fill="#1A4470"/>
</svg>
